<svg aria-hidden="true" style="position:absolute;width:0;height:0;overflow:hidden" xmlns="http://www.w3.org/2000/svg">
<defs>
<symbol id="close-black" viewBox="0 0 32 32"><path d="m26.667 7.303-1.97-1.97-7.808 7.808-7.808-7.808-1.97 1.97 7.808 7.808-7.808 7.808 1.97 1.97 7.808-7.808 7.808 7.808 1.97-1.97-7.808-7.808 7.808-7.808z"/></symbol>
<symbol id="client-6" viewBox="0 0 57 32"><path d="M28.496 14.618c-.236-.315-.349-.686-.323-1.061v-1.538c0-.471.107-.83.321-1.075s.581-.367 1.102-.366c.489 0 .837.104 1.042.313.224.266.333.592.308.92v.361h-.875v-.366c0-.014.001-.031.001-.048 0-.11-.009-.217-.028-.321l.002.011c-.013-.081-.057-.156-.125-.213a.505.505 0 0 0-.317-.083c-.12-.008-.239.024-.333.088-.076.063-.127.145-.145.235-.022.105-.035.226-.035.349v.033-.002 1.866c-.014.18.025.36.112.524.044.055.104.099.175.127a.4798.4798 0 0 0 .228.029h-.002c.112.008.223-.022.31-.085.071-.061.117-.141.13-.227.018-.101.028-.217.028-.336v-.04.002-.379h.875v.346c.025.342-.082.682-.303.967-.201.228-.544.343-1.047.343s-.884-.122-1.1-.376zm3.644.015c-.221-.239-.332-.588-.332-1.05v-1.618c0-.457.111-.803.332-1.037s.591-.351 1.109-.35c.515 0 .882.117 1.103.35.221.235.333.58.333 1.037v1.618c0 .457-.112.807-.337 1.048s-.591.361-1.1.361c-.509 0-.886-.122-1.109-.36zm1.516-.388a.906.906 0 0 0 .105-.479v-1.981a.8806.8806 0 0 0-.103-.469c-.044-.057-.106-.101-.179-.129a.4688.4688 0 0 0-.171-.031c-.021 0-.042.001-.062.004h.002a.4707.4707 0 0 0-.235.029l.003-.001c-.073.028-.135.072-.18.129a.8534.8534 0 0 0-.105.469v1.99c-.011.165.025.329.105.479.051.05.114.091.185.119s.147.042.225.042c.078 0 .154-.014.225-.042a.5402.5402 0 0 0 .185-.119v-.009zm2.082-3.62h.942l.709 2.985.725-2.985h.917l.092 4.308h-.678l-.072-2.994-.699 2.994h-.544l-.725-3.005-.067 3.005h-.685l.085-4.308zm4.441 0h1.468c.846 0 1.268.408 1.268 1.223 0 .781-.445 1.171-1.335 1.17h-.5v1.915h-.906l.005-4.308zm1.254 1.842c.09.01.18.003.266-.021a.6539.6539 0 0 0 .233-.116l-.001.001c.104-.146.15-.316.13-.486.001-.014.001-.031.001-.048 0-.122-.016-.24-.047-.352l.002.009a.3056.3056 0 0 0-.067-.118.3898.3898 0 0 0-.112-.086l-.002-.001a.926.926 0 0 0-.356-.07c-.017 0-.034 0-.051.001h.002-.352v1.287h.352zm2.789-1.842h.973l.998 4.308h-.844l-.197-.993h-.868l-.203.993h-.857l.998-4.308zm.832 2.816-.339-1.808-.339 1.808h.678zM47 10.625h.634l1.214 2.457v-2.457h.752v4.308h-.603l-1.221-2.565v2.565h-.777l.002-4.308zm4.361 2.666-1.009-2.659h.85l.616 1.708.578-1.708h.832l-.997 2.659v1.643h-.87v-1.643zm-21.466 3.526v.225h-.739v1.75h-.31v-1.75h-.743v-.225h1.792zm2.317 1.976h-.245a.1052.1052 0 0 1-.061-.019.1091.1091 0 0 1-.04-.045v-.001l-.214-.469h-1.026l-.214.469a.1258.1258 0 0 1-.033.053.1083.1083 0 0 1-.062.019h-.244l.906-1.976h.315l.917 1.968zm-1.5-.734h.855l-.362-.804a1.2783 1.2783 0 0 1-.064-.176l-.003-.01c-.013.038-.024.073-.034.105l-.033.083-.359.802zm3.062.54c.057.003.114.003.17 0 .054-.005.104-.013.152-.025l-.007.001c.052-.011.096-.023.138-.038l-.008.002c.04-.014.08-.031.121-.048v-.444h-.366a.0587.0587 0 0 1-.023-.004h.001a.0836.0836 0 0 1-.023-.012c-.006-.004-.01-.01-.014-.016a.0342.0342 0 0 1-.004-.018v-.154h.703v.757c-.11.069-.237.125-.373.159l-.009.002a1.59 1.59 0 0 1-.219.04l-.007.001a2.633 2.633 0 0 1-.261.012h-.016c-.159 0-.312-.027-.455-.076l.01.003a1.0891 1.0891 0 0 1-.362-.207c-.101-.09-.18-.196-.234-.313s-.083-.254-.083-.397v-.013.001-.012c0-.145.03-.282.084-.407l-.003.007a.9066.9066 0 0 1 .234-.313c.103-.089.227-.159.362-.205.14-.047.301-.074.468-.074h.019-.001.001c.088 0 .175.006.26.018l-.01-.001c.082.012.154.029.224.053l-.009-.003c.063.021.124.047.181.078.056.031.108.065.158.103l-.087.122a.0686.0686 0 0 1-.029.027.092.092 0 0 1-.041.01.111.111 0 0 1-.057-.016h.001a.892.892 0 0 1-.094-.05l.005.003a.6873.6873 0 0 0-.116-.051l-.006-.002a1.0266 1.0266 0 0 0-.16-.043l-.007-.001a1.3487 1.3487 0 0 0-.218-.017h-.012.001-.011c-.121 0-.237.02-.346.057l.008-.002a.7602.7602 0 0 0-.266.156.691.691 0 0 0-.169.246c-.038.098-.061.211-.061.329s.022.232.063.336l-.002-.006c.04.093.101.178.181.249.074.068.164.121.265.156.115.034.237.047.359.039zm2.888-.032h.989v.225h-1.292v-1.976h.31l-.007 1.751zm2.019.226h-.31v-1.976h.31v1.976zm1.152-1.967c.019.009.034.021.047.036l1.325 1.489c-.001-.011-.001-.023-.001-.035s0-.025.001-.037v.002-1.472h.27v1.984h-.166c-.02 0-.04-.004-.058-.012h.001a.2036.2036 0 0 1-.049-.037l-1.323-1.488v1.536h-.259v-1.976h.161c.018 0 .036.003.052.01h-.001zm3.923-.009v.217h-1.098v.652h.89v.21h-.89v.674h1.098v.217h-1.417v-1.971h1.417zM11.287 4.615l13.758 3.373v11.819l-13.758-3.371V4.616zm-.882-1.007V17.01l15.522 3.806v-13.4L10.405 3.608z"/><path d="M18.724 27.037 3.201 23.228v-13.4l15.523 3.808v13.402zM10.662 4.464l13.579 3.33-5.775 4.987L4.885 9.449l5.777-4.985zm-.257-.856-7.204 6.22 15.523 3.807 7.203-6.22-15.522-3.808zm9.192 22.675 6.329-5.466-6.329-1.553v7.019z"/></symbol>
<symbol id="client-5" viewBox="0 0 57 32"><path d="M14.272 23.859c.13.147.199.332.196.521.001.012.001.026.001.04 0 .116-.026.227-.073.325l.002-.005a.8288.8288 0 0 1-.233.298c-.252.175-.565.26-.881.24h-1.549v-3.302h1.517c.3-.018.597.059.841.219.098.075.176.17.227.277s.074.224.068.341c.009.182-.054.361-.176.505-.118.131-.28.222-.462.258.205.034.391.134.523.282zm-1.817-.498h.648c.147.01.294-.029.412-.11a.3989.3989 0 0 0 .11-.144l.001-.003a.353.353 0 0 0 .03-.144c0-.011-.001-.022-.002-.033v.001c.001-.008.001-.018.001-.028 0-.053-.011-.104-.031-.15l.001.002a.4103.4103 0 0 0-.108-.147h-.001a.665.665 0 0 0-.425-.111h-.638v.866zm1.124 1.266c.051-.04.091-.091.118-.149l.001-.003a.37.37 0 0 0 .035-.158c0-.009 0-.018-.001-.027v.001c0-.007.001-.015.001-.023 0-.059-.013-.115-.037-.165l.001.002a.421.421 0 0 0-.121-.152l-.001-.001c-.127-.086-.283-.128-.441-.119h-.68v.908h.689c.155.008.309-.032.435-.115zm3.794.652-.844-1.291h-.317v1.291h-.726v-3.302h1.374c.346-.022.689.078.957.281.192.179.308.415.327.666s-.061.499-.224.701c-.17.178-.401.296-.655.336l.899 1.32h-.789zm-1.162-1.741h.594c.412 0 .618-.167.618-.5.001-.008.001-.018.001-.028a.441.441 0 0 0-.035-.175l.001.003a.4937.4937 0 0 0-.118-.171c-.13-.099-.298-.147-.467-.134h-.601l.007 1.005zm5.13 1.076h-1.447l-.256.665h-.761l1.329-3.265h.823l1.323 3.265h-.761l-.25-.665zm-.194-.5-.529-1.394-.529 1.394h1.057zm5.16 1.165h-.721l-1.616-2.246v2.246h-.719v-3.302h.719l1.616 2.259v-2.259h.721v3.302zm4.113-.79c-.149.249-.376.452-.652.582-.314.145-.662.217-1.013.208h-1.283v-3.302h1.283c.351-.008.698.061 1.013.203.276.127.503.328.652.576.148.269.226.565.226.866s-.077.598-.226.866zm-.825-.079c.206-.219.319-.499.319-.788s-.113-.569-.319-.788c-.249-.199-.573-.3-.902-.281h-.5v2.138h.5c.329.019.654-.082.902-.281zM21.792 3.608s9.301 3.215 9.104 7.868v7.87s-9.294-3.217-9.101-7.87l-.004-7.868zm17.39 13.895c1.757-1.107 3.789-1.793 5.91-1.994v-2.463c-2.444.862-4.517 2.426-5.91 4.458z"/><path d="M38.127 18.245c1.438-2.651 3.93-4.696 6.965-5.716V5.431s-13.246 4.58-12.966 11.206v11.204s.59-.205 1.519-.589c0-.358 0-.719.042-1.082.274-3.076 1.871-5.926 4.44-7.924z"/><path d="M36.867 22.407c.078-.847.242-1.626.485-2.37l-.021.076c-1.6 1.726-2.568 3.867-2.77 6.122-.019.213-.03.426-.035.645.752-.331 1.628-.744 2.548-1.229-.158-.688-.249-1.478-.249-2.289 0-.336.016-.669.046-.998l-.003.042zm.527.041c-.026.272-.041.589-.041.909 0 .718.075 1.419.216 2.095l-.012-.066c3.619-1.983 7.686-5.046 7.529-8.749v-.323c-2.586.265-5.005 1.3-6.886 2.946-.44 1.02-.712 2.094-.807 3.188z"/></symbol>
<symbol id="client-4" viewBox="0 0 57 32"><path d="M12.879 11.254h-.002c-1.279 0-2.316.921-2.316 2.058v.001c0 1.137 1.037 2.058 2.316 2.058h.002c1.279 0 2.316-.921 2.316-2.058v-.001c0-1.137-1.037-2.058-2.316-2.058zm17.094-.657c-.004-1.579-.711-3.092-1.967-4.208s-2.959-1.745-4.735-1.749c-1.777.003-3.48.631-4.737 1.748s-1.964 2.63-1.968 4.209v8.706s13.406-1.327 13.407-8.705v-.001zM5.867 22.16c.003 1.099.496 2.151 1.369 2.928s2.058 1.215 3.294 1.218c1.236-.003 2.42-.441 3.294-1.218s1.366-1.829 1.37-2.927v-6.058s-9.328.924-9.328 6.057zm4.664 1.086c-.242 0-.478-.064-.679-.183s-.357-.289-.45-.487c-.092-.198-.117-.417-.069-.627s.163-.404.334-.556c.171-.152.388-.255.625-.297s.482-.02.706.062c.223.082.414.221.548.4s.206.388.206.603v.002c0 .15-.034.293-.094.42l.003-.006c-.061.132-.151.252-.264.353s-.248.182-.397.236c-.139.053-.299.083-.467.083h-.002v-.004zm9.427-.598h-.9v.93h-.469v-2.275h1.481v.38h-1.013v.588h.9v.378zm2.253-.156c0 .224-.04.42-.119.589s-.193.299-.341.391c-.147.092-.316.137-.506.137-.189 0-.357-.045-.505-.136s-.263-.22-.344-.387c-.081-.169-.122-.363-.123-.581v-.113c0-.224.04-.421.12-.591.081-.171.195-.302.342-.392.148-.092.317-.137.506-.137s.358.046.505.137c.148.091.262.221.342.392.081.17.122.366.122.589v.102zm-.475-.104c0-.239-.043-.42-.128-.544s-.207-.186-.366-.186c-.157 0-.279.061-.364.184-.085.122-.129.301-.13.538v.111c0 .232.043.413.128.541s.208.192.369.192c.157 0 .278-.061.363-.184.084-.124.127-.304.128-.541v-.111zm1.996.593c0-.089-.031-.156-.094-.203-.063-.048-.175-.098-.338-.15-.163-.053-.291-.105-.386-.156-.258-.14-.387-.328-.387-.564 0-.123.034-.232.103-.328.07-.097.169-.172.298-.227.13-.054.276-.081.438-.081.163 0 .307.03.434.089.127.058.226.141.295.248.071.107.106.229.106.366h-.469c0-.104-.033-.185-.098-.242s-.158-.087-.277-.087c-.115 0-.204.024-.267.073-.064.048-.095.111-.095.191 0 .074.037.136.111.186.075.05.185.097.33.141.267.08.461.18.583.298s.183.267.183.444c0 .197-.075.352-.224.464-.149.111-.349.167-.602.167-.175 0-.334-.032-.478-.095-.144-.065-.254-.153-.33-.264s-.113-.241-.113-.388h.47c0 .251.15.377.45.377.111 0 .198-.022.261-.067.063-.046.094-.109.094-.191zm2.501-1.299h-.697v1.895h-.469v-1.895h-.688v-.38h1.853v.38zm1.638.91h-.9v.609h1.056v.377h-1.525v-2.275h1.522v.38h-1.053v.542h.9v.367zm1.273.153h-.373v.833h-.469v-2.275h.845c.269 0 .476.06.622.18s.219.289.219.508c0 .155-.034.285-.102.389-.067.103-.168.185-.305.247l.492.93v.022h-.503l-.427-.833zm-.373-.38h.378c.118 0 .209-.03.273-.089.065-.06.097-.143.097-.248 0-.107-.031-.192-.092-.253-.06-.061-.154-.092-.28-.092h-.377v.683zm2.841.411v.802h-.469v-2.275h.888c.171 0 .321.031.45.094s.23.152.3.267c.07.115.105.245.105.392 0 .223-.077.399-.23.528-.152.128-.363.192-.633.192h-.411zm0-.38h.419c.124 0 .218-.029.283-.088s.098-.142.098-.25c0-.111-.033-.202-.098-.27s-.156-.104-.272-.106h-.43v.714zm2.966.196h-.9v.609h1.056v.377h-1.525v-2.275h1.522v.38h-1.053v.542h.9v.367zm2.175-.91h-.697v1.895h-.469v-1.895h-.688v-.38h1.853v.38zm1.638.91h-.9v.609h1.056v.377h-1.525v-2.275h1.522v.38h-1.053v.542h.9v.367zm1.273.153h-.373v.833h-.469v-2.275h.845c.269 0 .476.06.622.18s.219.289.219.508c0 .155-.034.285-.102.389s-.168.185-.305.247l.492.93v.022h-.503l-.427-.833zm-.373-.38h.378c.118 0 .209-.03.273-.089.065-.06.097-.143.097-.248 0-.107-.031-.192-.092-.253-.06-.061-.154-.092-.28-.092h-.377v.683zm2.754.616c0-.089-.031-.156-.094-.203-.063-.048-.175-.098-.338-.15-.163-.053-.291-.105-.386-.156-.258-.14-.388-.328-.388-.564 0-.123.034-.232.103-.328.07-.097.169-.172.298-.227.13-.054.276-.081.438-.081.163 0 .307.03.434.089.127.058.226.141.295.248.071.107.106.229.106.366h-.469c0-.104-.033-.185-.098-.242s-.158-.087-.277-.087c-.115 0-.204.024-.267.073-.064.048-.095.111-.095.191 0 .074.037.136.111.186.075.05.185.097.33.141.267.08.461.18.583.298s.183.267.183.444c0 .197-.074.352-.223.464-.149.111-.35.167-.602.167-.175 0-.334-.032-.478-.095-.144-.065-.254-.153-.33-.264-.075-.111-.112-.241-.112-.388h.47c0 .251.15.377.45.377.111 0 .198-.022.261-.067.063-.046.094-.109.094-.191z"/></symbol>
<symbol id="client-3" viewBox="0 0 57 32"><path d="M19.418 26.188c.009 0 .017.002.025.005s.015.007.021.013l.116.111c-.09.09-.202.162-.327.211-.129.048-.278.076-.434.076h-.031.002-.024c-.148 0-.29-.026-.421-.074l.009.003a.9416.9416 0 0 1-.329-.2c-.094-.089-.166-.194-.212-.308s-.074-.245-.074-.384v-.013.001-.013c0-.139.029-.271.083-.39l-.002.006a.91.91 0 0 1 .225-.308c.099-.087.218-.155.349-.201.13-.045.279-.071.435-.071h.016-.001.027c.14 0 .274.024.399.067l-.009-.003c.115.043.221.104.313.178l-.097.119a.0791.0791 0 0 1-.024.021.064.064 0 0 1-.034.009h-.006a.103.103 0 0 1-.043-.013l-.052-.032-.073-.04a.6763.6763 0 0 0-.092-.037l-.006-.002a.9293.9293 0 0 0-.126-.031l-.006-.001a.9872.9872 0 0 0-.16-.013h-.014.001-.012a.928.928 0 0 0-.318.055l.007-.002a.7366.7366 0 0 0-.253.149.6827.6827 0 0 0-.164.238c-.038.09-.06.194-.06.303v.011-.001.012c0 .11.022.216.062.312l-.002-.005c.035.087.09.167.161.236a.68.68 0 0 0 .241.147.867.867 0 0 0 .3.05h.017c.056 0 .112-.004.167-.011l-.006.001c.1-.011.191-.041.273-.087l-.003.002a.8576.8576 0 0 0 .117-.08l-.002.001c.015-.012.034-.02.055-.02zm3.359-.559v.012a.966.966 0 0 1-.081.388l.002-.006c-.047.114-.122.218-.219.305s-.214.155-.344.2c-.132.045-.284.071-.442.071s-.31-.026-.452-.074l.01.003a1.0268 1.0268 0 0 1-.342-.201.904.904 0 0 1-.221-.308 1.0225 1.0225 0 0 1 0-.787c.05-.115.125-.22.221-.31.097-.084.214-.15.342-.193.132-.046.284-.072.442-.072s.31.026.452.075l-.01-.003c.129.046.246.114.343.201.096.088.17.191.22.305.054.127.081.261.078.395zm-.305 0v-.017c0-.108-.02-.21-.057-.305l.002.006a.653.653 0 0 0-.156-.236.6826.6826 0 0 0-.246-.149c-.096-.033-.206-.052-.321-.052s-.225.019-.329.054l.007-.002a.6826.6826 0 0 0-.246.149.6308.6308 0 0 0-.157.236c-.035.094-.056.203-.056.316s.02.222.058.322l-.002-.006a.643.643 0 0 0 .157.236c.068.065.152.115.246.148.096.032.207.05.321.05s.225-.018.329-.053l-.007.002a.6978.6978 0 0 0 .246-.148c.07-.069.123-.149.156-.236a.8147.8147 0 0 0 .055-.298v-.019.001zm2.597.332.03.071c.012-.025.022-.048.033-.071.013-.027.026-.05.039-.072l-.002.003.743-1.174c.015-.02.028-.033.042-.037s.033-.007.051-.007h.231v1.909h-.26V25.12c-.001-.01-.001-.021-.001-.033s0-.023.001-.034v.002l-.747 1.19a.111.111 0 0 1-.043.043h-.001c-.018.01-.04.016-.063.016H25.077a.1339.1339 0 0 1-.063-.016h.001a.1048.1048 0 0 1-.043-.043v-.001l-.769-1.198v1.533h-.252v-1.905h.23c.018 0 .035.002.052.007h-.001c.018.007.032.02.041.036l.759 1.175c.014.02.026.042.037.066l.001.003zm2.797-.095v.715h-.291v-1.907h.673c.12 0 .237.015.348.044l-.01-.002c.094.023.181.064.256.119.065.052.114.116.145.187.034.078.051.161.049.244v.007c0 .086-.02.167-.055.24l.001-.003a.5405.5405 0 0 1-.157.191.7441.7441 0 0 1-.252.125l-.005.001a1.208 1.208 0 0 1-.327.044h-.025.001l-.352-.005zm0-.205h.362c.077 0 .151-.011.221-.03l-.006.001a.479.479 0 0 0 .164-.083l-.001.001a.3379.3379 0 0 0 .098-.124l.001-.002a.361.361 0 0 0 .035-.156v-.005c0-.006.001-.013.001-.02a.313.313 0 0 0-.031-.137l.001.002a.3831.3831 0 0 0-.101-.13l-.001-.001c-.111-.075-.251-.112-.391-.102h-.352v.786zm3.909.922h-.234a.1115.1115 0 0 1-.06-.018.116.116 0 0 1-.038-.044v-.001l-.198-.461h-.993l-.205.461a.1081.1081 0 0 1-.036.043.1083.1083 0 0 1-.062.019h-.234l.873-1.909h.302l.884 1.909zm-1.44-.708h.82l-.346-.777a1.2046 1.2046 0 0 1-.063-.171l-.002-.009-.034.1a.7347.7347 0 0 1-.034.086l.002-.006-.343.776zm2.696-1.192c.017.008.032.02.043.034l1.272 1.439v-1.482h.26v1.909h-.149c-.02 0-.039-.004-.057-.012h.001a.1477.1477 0 0 1-.046-.035l-1.271-1.438c.001.01.001.021.001.033s0 .023-.001.034v-.002 1.419h-.26v-1.909h.158c.017 0 .034.003.05.009h-.001zm3.72 1.141v.758h-.291v-.758l-.804-1.15h.266c.021 0 .041.006.057.017.015.012.029.026.039.042v.001l.503.742c.02.032.038.061.052.088s.026.054.036.081l.038-.082a.577.577 0 0 1 .051-.089l-.002.002.496-.747a.2021.2021 0 0 1 .037-.04.096.096 0 0 1 .058-.019h.268l-.806 1.155zM24.925 21.47c.127.014.255.025.384.035 1.962-.763 3.622-2.011 4.772-3.589s1.74-3.415 1.695-5.282l-2.162-1.879c.44 1.988.234 4.043-.594 5.935s-2.246 3.547-4.094 4.779z"/><path d="m24.153 21.383.058.01c1.976-1.228 3.482-2.942 4.324-4.922s.981-4.133.4-6.182l-3.08-2.676c1.246 2.2 1.747 4.661 1.446 7.099s-1.393 4.751-3.148 6.67zm10.446-6.542c-.523 2.052-1.794 3.902-3.624 5.276-.534.404-1.111.763-1.722 1.074 1.49-.381 2.859-1.053 4.003-1.966s2.03-2.042 2.592-3.3l-1.249-1.084z"/><path d="m34.109 14.539-1.779-1.545c-.034 1.762-.611 3.484-1.67 4.986s-2.562 2.732-4.353 3.559h.009c.421 0 .836-.023 1.245-.066l-.051.004c1.673-.593 3.152-1.538 4.303-2.748s1.94-2.65 2.295-4.19zm-9.698-8.054-2.122-1.846c-1.897.637-3.528 1.756-4.68 3.212s-1.772 3.18-1.778 4.947c.007 1.952.763 3.847 2.149 5.383s3.322 2.628 5.502 3.101c1.946-2.06 3.085-4.605 3.252-7.266s-.647-5.299-2.323-7.531zm14.6 7.769c-.008-2.316-1.07-4.536-2.955-6.173s-4.439-2.561-7.105-2.568c-1.232-.001-2.453.196-3.602.582L38.34 17.382c.445-.998.673-2.058.672-3.128z"/></symbol>
<symbol id="client-2" viewBox="0 0 57 32"><path d="M26.729 3.164h-.073c-.112-.007-.224-.01-.336-.012h-.243c-.212 0-.428.005-.642.016-.007-.001-.016-.001-.024-.001s-.017 0-.025.001h.001c-2.059.12-3.971.635-5.699 1.47l.09-.039-.231.111v11.81l.54-.183c.474-.163.978-.309 1.5-.445 1.29-.345 2.775-.553 4.305-.574h.013v1.552c-.204.001-.403.007-.6.018l.032-.001h-.045c-1.212.068-2.349.25-3.442.537l.12-.027c-1.503.382-2.82.91-4.044 1.586l.087-.044V3.793c1.195-.711 2.578-1.29 4.042-1.665l.11-.024c1.173-.315 2.52-.499 3.91-.504h.231c.273.007.538.019.788.038.719.052 1.384.162 2.028.328l-.078-.017v1.527c-.544-.133-1.19-.235-1.85-.283l-.039-.002-.039-.003c-.132-.011-.263-.022-.386-.022zm2.688 1.561c.339.026.689.038 1.044.038 1.464-.006 2.881-.198 4.231-.554l-.117.026c1.503-.384 2.819-.912 4.044-1.588l-.087.044v14.876c-1.196.71-2.579 1.289-4.043 1.665l-.11.024c-1.173.314-2.52.497-3.909.503h-.1c-1.02 0-2.01-.128-2.955-.368l.083.018V4.436c.229.053.465.102.706.142.394.066.81.115 1.214.145zm7.571.115-.54.182c-.326.12-.827.273-1.334.411l-.166.038c-1.344.36-2.888.569-4.48.575h-.004c-.352 0-.676-.01-.989-.03l-.43-.028v12.149l.37.033c.343.03.696.045 1.052.045 1.257-.006 2.473-.172 3.631-.48l-.1.023c1.058-.269 1.977-.608 2.847-1.03l-.088.039.231-.111V4.842zM19.061 24.273a.8059.8059 0 0 0-.269-.184l-.005-.002a.7708.7708 0 0 0-.297-.058c-.01 0-.02 0-.03.001h.001-.012c-.121 0-.236.024-.341.067l.006-.002a.8143.8143 0 0 0-.27.178.7865.7865 0 0 0-.172.266l-.002.005a.871.871 0 0 0-.062.325v.011-.001 2.024c-.005.143.022.284.08.415.05.107.118.197.201.27l.001.001a.718.718 0 0 0 .278.144c.09.026.195.042.302.042h.008c.116 0 .225-.026.324-.073l-.005.002a.869.869 0 0 0 .27-.187.8794.8794 0 0 0 .175-.265l.002-.006a.804.804 0 0 0 .065-.319v-.231h-.529v.192c0 .061-.011.118-.032.171l.001-.003a.315.315 0 0 1-.077.114.3405.3405 0 0 1-.108.058l-.002.001a.3837.3837 0 0 1-.11.019.268.268 0 0 1-.248-.108l-.001-.001a.4772.4772 0 0 1-.071-.25v-.022.001-1.907c0-.103.024-.2.067-.286l-.002.004a.2797.2797 0 0 1 .11-.098l.002-.001a.2698.2698 0 0 1 .149-.024h-.001.01c.092 0 .174.045.226.113l.001.001c.055.071.088.162.088.26v.011-.001.175h.524v-.214c0-.124-.024-.243-.067-.352l.002.006a.8225.8225 0 0 0-.177-.285zm3.143-.023a.9333.9333 0 0 0-.601-.222c-.113 0-.222.021-.322.059l.006-.002a.8423.8423 0 0 0-.28.166l.001-.001a.8456.8456 0 0 0-.203.278l-.002.005c-.049.11-.077.239-.077.374v.019-.001 1.941c-.004.137.023.272.077.397.048.104.118.197.205.271.081.075.176.133.279.171a.944.944 0 0 0 .316.057c.113 0 .222-.021.322-.059l-.006.002c.11-.041.205-.099.287-.172l-.001.001c.083-.075.15-.165.198-.266l.002-.005c.049-.11.077-.238.077-.372v-.026.001-1.959c0-.135-.028-.264-.079-.38l.002.006a.8761.8761 0 0 0-.199-.283zm-.247 2.616c.001.009.001.02.001.03a.348.348 0 0 1-.106.25.3874.3874 0 0 1-.499 0h.001a.3455.3455 0 0 1-.107-.251c0-.011 0-.021.001-.031v.001-1.941c-.001-.009-.001-.02-.001-.03 0-.098.041-.187.106-.251a.3874.3874 0 0 1 .499 0h-.001c.066.063.107.152.107.251 0 .011 0 .021-.001.032v-.001 1.941zm4.374.867v-3.674h-.509l-.668 1.945h-.009l-.673-1.945h-.503v3.674h.525v-2.235h.009l.514 1.58h.262l.518-1.58h.009v2.235h.525zm2.982-3.417a.7287.7287 0 0 0-.292-.199l-.005-.002a1.151 1.151 0 0 0-.36-.057h-.8v3.674h.523v-1.435h.27a.964.964 0 0 0 .472-.1c.12-.068.217-.163.285-.277l.002-.003a.8747.8747 0 0 0 .12-.32c.018-.116.029-.249.029-.385v-.034.002c.001-.018.001-.039.001-.061 0-.165-.019-.325-.055-.478l.003.014a.789.789 0 0 0-.193-.338zm-.269 1.121c-.002.07-.02.136-.05.194l.001-.003a.299.299 0 0 1-.133.128l-.002.001c-.064.03-.14.047-.219.047-.01 0-.019 0-.029-.001h.001-.239v-1.249h.27c.007 0 .016-.001.025-.001.077 0 .149.017.215.048l-.003-.001c.054.031.096.078.122.134l.001.002c.029.065.044.134.046.205v.244c0 .085.005.174 0 .252h-.005zm2.749-1.378h-.429l-.81 3.674h.523l.154-.789h.714l.154.789h.524l-.83-3.674zm-.483 2.384.258-1.332h.009l.256 1.332h-.524zm3.866-.171h-.009l-.791-2.213h-.503v3.674h.523v-2.209h.011l.8 2.209h.492v-3.674h-.523v2.213zm3.199-2.213-.421 1.461h-.011l-.421-1.461h-.555l.719 2.121v1.553h.524V26.18l.719-2.121h-.555zM17.601 28.77h.252v.708h.171v-.708h.251v-.145H17.6v.145zm2.122-.145-.331.853h.182l.07-.194h.34l.073.194h.186l-.339-.853h-.182zm-.027.516.116-.316.116.316h-.232zm2.123.023h.197v.11a.329.329 0 0 1-.202.072h-.012a.2185.2185 0 0 1-.169-.081.3555.3555 0 0 1-.064-.204c0-.007 0-.013.001-.02v.001c0-.19.082-.285.246-.285.005-.001.012-.001.018-.001.039 0 .075.012.104.033h-.001c.035.025.06.061.071.102v.001l.169-.033c-.036-.167-.157-.251-.362-.251h-.011c-.11 0-.211.042-.287.11a.4154.4154 0 0 0-.124.297c0 .011 0 .022.001.033v-.001.02c0 .115.041.22.11.301l-.001-.001c.041.042.09.075.145.097l.003.001c.044.017.095.028.148.028.01 0 .019 0 .029-.001h-.001.014a.515.515 0 0 0 .348-.136v-.336h-.37v.144zm2.142-.539h-.173v.853h.598v-.145h-.425v-.708zm1.81 0h-.173v.853h.173v-.853zm1.771.57-.349-.57h-.167v.853h.161v-.557l.343.557h.171v-.853h-.158v.57zm1.6-.092h.425v-.145h-.425v-.187h.457v-.145h-.63v.853h.648v-.145h-.475v-.231zm3.881-.141h-.336v-.336h-.171v.853h.171v-.373h.336v.373h.171v-.853h-.171v.336zm1.609.141h.426v-.145h-.426v-.187h.459v-.145h-.63v.853h.646v-.145h-.475v-.231zm2.183 0c.148-.023.224-.102.224-.237.001-.007.001-.016.001-.024 0-.068-.033-.128-.084-.165h-.001a.482.482 0 0 0-.217-.051c-.012 0-.023 0-.035.001h.002-.362v.853h.171v-.357h.048c.033 0 .065.007.094.02l-.001-.001c.025.016.046.037.06.062v.001l.186.271h.205l-.104-.167a.5984.5984 0 0 0-.187-.203l-.002-.001zm-.172-.118h-.127v-.214h.135c.011-.001.023-.001.036-.001.049 0 .097.008.141.023l-.003-.001c.023.02.038.05.038.083v.006a.1145.1145 0 0 1-.045.085.4662.4662 0 0 1-.143.021c-.011 0-.022 0-.033-.001h.001zm1.819.118h.425v-.145h-.425v-.187h.459v-.145h-.631v.853h.648v-.145h-.475v-.231z"/></symbol>
<symbol id="client-1" viewBox="0 0 55 32"><path d="m19.614 3.613 3.617 3.424-6.714-.004v16.614h17.55v-6.352l3.613 3.421V3.613H19.614zm14.295 13.28L23.653 7.184h10.256v9.709zm-3.185 4.324h-11.43V10.043h.808V20.46h10.622v.757zm-8.73 4.643-.422.87-.422-.87h-.354l.616 1.159v.675h.32v-.675l.615-1.159h-.353zm.53 1.834.149-.427h.711l.15.427h.333l-.694-1.835h-.286l-.693 1.835h.331zm.504-1.445.266.761h-.532l.266-.761zm1.681.717a.4157.4157 0 0 0-.069.23v.003c0 .155.054.28.163.377s.255.144.436.144.338-.049.469-.147l.103.122h.355l-.27-.319c.106-.144.159-.33.159-.556h-.266c0 .123-.026.236-.077.336l-.354-.418.125-.091c.088-.064.152-.128.19-.192.036-.06.058-.132.058-.209v-.003c0-.116-.043-.213-.129-.291s-.194-.118-.328-.118c-.148 0-.265.042-.353.126s-.131.197-.131.34c0 .059.014.12.042.183s.079.139.15.229c-.136.097-.227.182-.273.253zm.828.406c-.09.069-.186.103-.29.103-.092 0-.165-.026-.219-.079s-.082-.122-.082-.207c0-.098.05-.186.151-.262l.039-.028.401.473zm-.329-.813c-.087-.107-.13-.195-.13-.266 0-.061.018-.112.053-.152s.083-.061.142-.061c.055 0 .101.017.137.052s.054.074.054.122c0 .072-.026.131-.078.178l-.039.032-.14.096zm2.987.997c.126-.11.198-.263.217-.459h-.318c-.017.131-.057.225-.12.281s-.157.084-.282.084c-.137 0-.241-.052-.313-.156s-.106-.255-.106-.454v-.163c.002-.196.04-.344.113-.445s.181-.152.32-.152c.119 0 .21.029.271.088s.101.153.116.285h.318c-.02-.201-.092-.356-.215-.466s-.286-.165-.489-.165c-.15 0-.283.036-.398.107s-.202.173-.263.305-.092.284-.092.457v.171c.002.169.034.317.095.445s.146.226.257.296c.112.069.241.103.387.103.209 0 .377-.055.503-.164zm1.874-.257c.062-.136.093-.294.093-.474v-.102c-.001-.179-.033-.336-.096-.47s-.152-.239-.268-.31c-.115-.072-.247-.108-.397-.108s-.282.037-.398.11c-.115.072-.205.177-.268.314s-.095.295-.095.474v.103c.001.176.033.331.096.465s.154.238.27.311c.117.072.25.108.398.108.15 0 .283-.036.398-.108s.205-.177.267-.313zm-.342-1.037c.077.108.116.264.116.468v.096c0 .207-.038.364-.115.471s-.184.161-.325.161c-.139 0-.249-.055-.328-.165s-.117-.266-.117-.468v-.106c.002-.197.041-.35.118-.457s.186-.163.324-.163c.141 0 .25.054.326.163z"/></symbol>
<symbol id="instagram" viewBox="0 0 32 32"><path d="M31.976 9.41c-.075-1.701-.35-2.87-.744-3.883-.407-1.075-1.032-2.038-1.851-2.839A7.8845 7.8845 0 0 0 26.602.862l-.054-.018C25.529.45 24.366.175 22.665.1 20.952.019 20.408 0 16.062 0s-4.89.019-6.596.094c-1.701.075-2.87.35-3.883.744-1.075.407-2.038 1.032-2.839 1.851A7.8935 7.8935 0 0 0 .918 5.468L.9 5.522C.506 6.541.231 7.704.156 9.404c-.081 1.714-.1 2.258-.1 6.603s.019 4.889.094 6.596c.075 1.701.35 2.87.744 3.883.427 1.111 1.056 2.057 1.85 2.837l.001.001c.78.792 1.724 1.419 2.779 1.826l.054.018c1.019.394 2.182.669 3.883.744 1.707.075 2.251.094 6.596.094s4.889-.019 6.596-.094c1.701-.075 2.87-.35 3.883-.744 2.157-.85 3.833-2.526 4.664-4.628l.019-.055c.394-1.019.669-2.182.744-3.883.075-1.707.094-2.251.094-6.596s-.006-4.89-.081-6.597zm-2.883 13.068c-.069 1.563-.331 2.407-.55 2.97-.551 1.4-1.639 2.488-3.003 3.026l-.036.013c-.563.219-1.413.481-2.97.55-1.688.075-2.195.094-6.465.094s-4.783-.019-6.465-.094c-1.563-.069-2.407-.331-2.97-.55-.694-.256-1.326-.663-1.838-1.194a4.9881 4.9881 0 0 1-1.183-1.804l-.011-.034c-.219-.563-.481-1.413-.55-2.97-.075-1.688-.094-2.195-.094-6.465s.019-4.783.094-6.465c.069-1.563.331-2.407.55-2.97.257-.694.663-1.325 1.201-1.838a4.9752 4.9752 0 0 1 1.804-1.183l.034-.011c.563-.219 1.413-.481 2.97-.55 1.688-.075 2.195-.094 6.465-.094 4.277 0 4.783.019 6.465.094 1.563.069 2.407.331 2.97.55.694.256 1.325.663 1.838 1.194.531.519.938 1.144 1.194 1.838.219.563.481 1.413.55 2.97.075 1.688.094 2.194.094 6.465s-.019 4.771-.094 6.459z"/><path d="M16.063 7.784c-4.539 0-8.222 3.683-8.222 8.222s3.683 8.222 8.222 8.222c4.54 0 8.222-3.683 8.222-8.222s-3.683-8.222-8.222-8.222zm0 13.556c-2.945 0-5.333-2.388-5.333-5.333s2.389-5.333 5.333-5.333c2.945 0 5.333 2.388 5.333 5.333s-2.388 5.333-5.333 5.333zM26.53 7.459c0 1.06-.86 1.919-1.92 1.919s-1.919-.859-1.919-1.919.859-1.919 1.919-1.919 1.92.859 1.92 1.919z"/></symbol>
<symbol id="linkedin" viewBox="0 0 32 32"><path d="M31.999 32.007v-.001h.008V20.267c0-5.743-1.236-10.166-7.95-10.166-3.227 0-5.393 1.771-6.277 3.45h-.093v-2.914h-6.365v21.369h6.628V21.425c0-2.786.528-5.48 3.978-5.48 3.399 0 3.45 3.179 3.45 5.659v10.404h6.621zM.528 10.638h6.636v21.369H.528V10.638zM3.844 0C1.722 0 0 1.722 0 3.844s1.722 3.879 3.844 3.879 3.843-1.758 3.843-3.879C7.686 1.722 5.964 0 3.844 0z"/></symbol>
<symbol id="facebook" viewBox="0 0 32 32"><path d="M21.334 5.314h2.922V.225C23.752.156 22.018 0 19.999 0 15.786 0 12.9 2.65 12.9 7.52v4.482H8.251v5.689H12.9v14.315h5.7V17.692h4.461l.708-5.689h-5.171V8.084c.001-1.644.444-2.77 2.735-2.77z"/></symbol>
<symbol id="twitter" viewBox="0 0 32 32"><path d="M32.007 6.079c-1.19.522-2.459.868-3.781 1.036 1.36-.812 2.399-2.088 2.887-3.627-1.268.756-2.668 1.29-4.161 1.588C25.748 3.794 24.031 3 22.159 3c-3.633 0-6.557 2.949-6.557 6.564 0 .52.044 1.02.152 1.496-5.455-.266-10.282-2.881-13.525-6.864-.566.982-.898 2.107-.898 3.317 0 2.273 1.17 4.287 2.915 5.453-1.054-.02-2.088-.326-2.965-.808v.072c0 3.189 2.274 5.837 5.257 6.447-.534.146-1.116.216-1.72.216-.42 0-.844-.024-1.242-.112.85 2.599 3.263 4.509 6.131 4.571-2.215 1.745-5.045 2.799-8.122 2.799H1.57h.001c-.538 0-1.054-.024-1.57-.09 2.907 1.875 6.351 2.945 10.066 2.945 12.075 0 18.676-10.002 18.676-18.672 0-.29-.01-.57-.024-.848 1.302-.924 2.397-2.079 3.289-3.407z"/></symbol>
<symbol id="astronaut" viewBox="0 0 32 32"><path fill="#2196f3" style="fill:var(--color3, #2196f3)" d="M31.978 4.525c-.064-.191-.227-.332-.427-.362h-.003l-1.911-.278-.855-1.731c-.179-.365-.777-.365-.956 0l-.855 1.731-1.911.278a.5369.5369 0 0 0-.43.359l-.001.004a.5342.5342 0 0 0 .135.547l1.383 1.348-.326 1.903c-.034.2.048.402.212.522a.528.528 0 0 0 .313.102c.091 0 .177-.023.252-.063l-.003.001 1.709-.899 1.709.899c.078.041.164.061.249.061.11 0 .221-.034.314-.102.134-.098.22-.254.22-.431 0-.032-.003-.063-.008-.094v.003l-.326-1.903 1.383-1.348a.5348.5348 0 0 0 .134-.55l.001.004zm-2.463 1.327a.5331.5331 0 0 0-.161.382c0 .032.003.063.008.094v-.003l.191 1.114-1.001-.526a.5203.5203 0 0 0-.248-.061h-.001c-.085 0-.17.02-.249.061l-1.001.526.191-1.114a.5021.5021 0 0 0 .008-.09c0-.15-.062-.285-.161-.382l-.81-.79L27.4 4.9a.5335.5335 0 0 0 .4-.289l.001-.003.5-1.013.5 1.013c.078.157.228.267.402.292l1.119.163-.809.789zm-3.378 14.673H25.07v1.067h1.067v-1.067zm0 2.133H25.07v1.067h1.067v-1.067zm1.067-1.066h-1.067v1.067h1.067v-1.067zm-2.134 0h-1.067v1.067h1.067v-1.067zm-2.667 4.8h-1.067v1.067h1.067v-1.067zm0 2.134h-1.067v1.067h1.067v-1.067zm1.067-1.067h-1.067v1.067h1.067v-1.067zm-2.134 0h-1.067v1.067h1.067v-1.067zm-5.334-3.2h-1.067v1.067h1.067v-1.067zm0 2.133h-1.067v1.067h1.067v-1.067zm1.067-1.067h-1.067v1.067h1.067v-1.067zm-2.134 0h-1.067v1.067h1.067v-1.067zM5.867 6.123H4.8V7.19h1.067V6.123zm0 2.133H4.8v1.067h1.067V8.256z"/><path fill="#2196f3" style="fill:var(--color3, #2196f3)" d="M6.934 7.19H5.867v1.067h1.067V7.19zm-2.134 0H3.733v1.067H4.8V7.19z"/><path fill="#212121" style="fill:var(--color4, #212121)" d="M24.718 14.161c-.287-.388-.709-.637-1.188-.705-.481-.068-.956.058-1.34.352l-1.253.96-1.898 1.417-1.358-.541c2.422-1.087 4.114-3.509 4.114-6.321 0-3.823-3.123-6.934-6.962-6.934S7.871 5.5 7.871 9.323c0 1.386.414 2.674 1.12 3.759l-2.769-.024c-.009 0-.015.004-.023.005a.5547.5547 0 0 0-.159.032l.004-.001c-.013.005-.026.008-.038.013-.006.003-.013.003-.019.006l-3.233 1.596c-.001 0-.001 0-.001.001l-1.894.911a.4288.4288 0 0 0-.064.036l.001-.001c-.755.502-1.012 1.489-.598 2.296.22.429.595.745 1.056.889.161.052.347.083.539.083.29 0 .577-.071.84-.211l1.388-.738 2.264-1.169 1.357-.008L2.2 22.214c-.001.001-.001.001-.002.001L.859 23.549c-.316.315-.49.732-.49 1.178s.174.864.49 1.179c.325.323.752.485 1.179.485s.855-.162 1.18-.485l1.314-1.309 1.741-1.3.901.897-1.762 1.754c0 .001-.001.001-.002.001l-1.339 1.333c-.316.315-.49.732-.49 1.178s.174.864.49 1.179c.325.323.753.485 1.18.485s.855-.162 1.18-.485l3.482-3.467c.001-.001.001-.001.001-.002l1.01-1-.004-.004c.006-.006.015-.009.022-.015l5.167-5.659 3.471.494c.022.003.048.005.073.005h.002c.065 0 .127-.015.187-.038.018-.006.033-.015.05-.023.019-.01.039-.015.058-.027l3.214-2.134c.012-.008.018-.021.029-.029.013-.01.029-.014.041-.026l1.272-1.191c.662-.62.753-1.636.212-2.362zM2.131 17.772a.714.714 0 0 1-.558.052.7167.7167 0 0 1-.427-.358.7138.7138 0 0 1 .214-.902l1.314-.632.449 1.313-.992.528zm3.497-1.828-1.548.8-.439-1.283 2.027-1.001-.04 1.484zM20.73 9.323c0 .918-.219 1.785-.599 2.56l-4.182-1.899c-.044-.573-.341-1.075-.788-1.388l1.464-4.861c2.378.756 4.105 2.975 4.105 5.589zm-11.791 0c0-3.235 2.645-5.868 5.895-5.868.253 0 .5.021.745.052l-1.432 4.754c-.019-.001-.037-.006-.057-.006-1.033 0-1.873.837-1.873 1.867s.84 1.867 1.873 1.867c.694 0 1.295-.383 1.618-.945l3.863 1.755c-1.075 1.447-2.795 2.39-4.737 2.39-3.251 0-5.895-2.632-5.895-5.868zm5.957.8c0 .441-.362.8-.806.8s-.806-.359-.806-.8c0-.441.362-.8.806-.8s.806.359.806.8zM2.465 25.149c-.236.234-.619.234-.855.001-.114-.114-.176-.263-.176-.423s.062-.309.176-.421l.962-.959.851.848-.959.955zm3.214 3.734c-.236.234-.619.235-.855.001-.114-.114-.176-.263-.176-.423s.062-.309.176-.421l.963-.959.852.848-.96.955zm3.483-3.469c-.001 0-.001 0-.002.001l-1.765 1.76-.852-.848 1.763-1.756c.001-.001.001-.001.002-.001.04-.04.065-.088.09-.135.007-.014.02-.026.026-.04.017-.041.019-.085.026-.129.003-.025.014-.047.014-.073 0-.036-.013-.07-.02-.106-.006-.032-.006-.065-.019-.095-.02-.05-.055-.094-.091-.138-.01-.012-.014-.027-.025-.038h-.001c-.001 0-.001-.002-.001-.002l-1.607-1.6c-.017-.017-.039-.024-.058-.038a.5067.5067 0 0 0-.087-.058c-.03-.015-.061-.024-.093-.033a.5073.5073 0 0 0-.103-.02.5002.5002 0 0 0-.095.005.5307.5307 0 0 0-.104.02c-.034.011-.063.027-.094.045-.02.011-.042.015-.061.029l-1.774 1.324-.901-.897 2.399-2.386 4.361 4.289-.928.919zm6.819-7.018c-.015-.002-.03.004-.045.003-.008 0-.017-.001-.026-.001-.031 0-.062.003-.092.008h.003a.5364.5364 0 0 0-.088.021c-.034.012-.065.028-.097.047s-.059.039-.084.062c-.013.011-.028.017-.04.029l-4.699 5.146-4.329-4.257 2.833-2.819c.209-.208.21-.546.002-.755a.5314.5314 0 0 0-.381-.156v-.001l-2.219.013.028-1.608 3.104.027c1.265 1.294 3.03 2.101 4.982 2.101.437 0 .864-.045 1.28-.123.04.032.079.065.13.085l2.41.96.331 1.644-3.003-.427zm4.042.179-.313-1.558 1.447-1.08.947 1.257-2.08 1.382zm3.754-2.832-.838.785-.931-1.236.832-.637c.155-.119.351-.168.543-.143.193.027.364.128.48.284.217.292.18.699-.085.947z"/><path fill="#212121" style="fill:var(--color4, #212121)" d="m13.604 18.546-2.143-2.134c-.207-.207-.545-.207-.753 0l-2.143 2.134a.532.532 0 0 0-.157.378c0 .142.056.278.157.378l2.143 2.134c.104.103.241.155.377.155s.273-.052.376-.155l2.143-2.134a.532.532 0 0 0 .157-.378c0-.142-.057-.278-.157-.378zm-2.519 1.759-1.387-1.381 1.387-1.381 1.387 1.381-1.387 1.381zm6.081-15.234-.258 1.036c.071.018 1.738.452 1.738 2.149h1.067c0-2.017-1.666-2.966-2.547-3.185zm2.547 4.252h-1.067v1.067h1.067V9.323z"/></symbol>
<symbol id="diagram" viewBox="0 0 32 32"><path fill="#2196f3" style="fill:var(--color3, #2196f3)" d="M14.927 14.966h1.066v4.798h-1.066v-4.798zm4.265 2.133h1.066v2.666h-1.066v-2.666zm-8.53 1.599h1.066v1.066h-1.066v-1.066zm-3.198-.533H8.53v1.599H7.464v-1.599z"/><path fill="#212121" style="fill:var(--color4, #212121)" d="M1.599 28.294h25.59c.883 0 1.599-.716 1.599-1.599v-2.132c0-.883-.716-1.599-1.599-1.599h-.533V9.669L29.684 6.8c.703.346 1.554.136 2.014-.499s.396-1.509-.153-2.069c-.548-.56-1.42-.644-2.065-.198s-.874 1.292-.542 2.002l-2.282 2.163v-1.23c0-.883-.716-1.599-1.599-1.599H3.732c-.883 0-1.599.716-1.599 1.599v15.994H1.6c-.883 0-1.599.716-1.599 1.599v2.132c0 .883.716 1.599 1.599 1.599zM30.388 4.837c.294 0 .533.239.533.533s-.239.533-.533.533c-.294 0-.533-.239-.533-.533s.239-.533.533-.533zM3.199 6.97c0-.294.239-.533.533-.533h21.325c.294 0 .533.239.533.533v2.239l-1.066 1.013V8.036c0-.294-.239-.533-.533-.533H4.799c-.294 0-.533.239-.533.533v13.328c0 .294.239.533.533.533h19.192c.294 0 .533-.239.533-.533v-9.676l1.066-1.01v12.285H3.199V6.969zm4.798 6.93c-.721-.002-1.355.478-1.546 1.174s.105 1.433.725 1.801c.62.368 1.41.276 1.928-.226l1.853.93a.5341.5341 0 0 0 .636-.122v-.001l3.939-4.432 3.872 2.902a.5355.5355 0 0 0 .687-.04l3.366-3.188v8.132H5.331V8.568h18.126v2.661l-3.772 3.572-3.905-2.928a.5332.5332 0 0 0-.718.072l-3.993 4.493-1.493-.747c.01-.056.017-.123.02-.19v-.003c0-.883-.716-1.599-1.599-1.599zm.533 1.6c0 .294-.239.533-.533.533s-.533-.239-.533-.533c0-.294.239-.533.533-.533s.533.239.533.533zm3.199 8.53h5.331v.533c0 .294-.239.533-.533.533h-4.265a.5335.5335 0 0 1-.533-.533v-.533zm-10.663.533c0-.294.239-.533.533-.533h9.063v.533c0 .883.716 1.599 1.599 1.599h4.265c.883 0 1.599-.716 1.599-1.599v-.533h9.063c.294 0 .533.239.533.533v2.132c0 .294-.239.533-.533.533H1.598a.5335.5335 0 0 1-.533-.533v-2.132z"/></symbol>
<symbol id="clock" viewBox="0 0 32 32"><path fill="#212121" style="fill:var(--color4, #212121)" d="M31.301 15.303C31.299 6.85 24.445-.002 15.991 0S.686 6.856.688 15.31c.001 6.659 4.307 12.553 10.651 14.578.061.019.124.029.187.029.126 0 .245-.035.346-.095l-.003.002a.639.639 0 0 0 .282-.352l.001-.005 3.865-12.252c1.057-.005 1.909-.867 1.903-1.923s-.866-1.909-1.923-1.904c-.299.001-.581.072-.831.196l.011-.005-5.107-5.107a.6372.6372 0 0 0-.902.016.637.637 0 0 0 0 .886l5.104 5.11c-.392.799-.168 1.764.536 2.309l-3.683 11.674C3.846 25.786.119 17.712 2.8 10.433S13.555-.573 20.834 2.108c7.279 2.681 11.006 10.755 8.325 18.034-1.345 3.581-4.004 6.407-7.375 7.939l-.088.036-.398-1.875a.6373.6373 0 0 0-1.049-.343l.001-.001-3.837 3.426a.6377.6377 0 0 0-.052.901c.076.085.174.149.283.184l4.899 1.564c.335.108.694-.077.802-.412a.639.639 0 0 0 .031-.196c0-.047-.005-.092-.015-.136l.001.004-.391-1.839c5.665-2.388 9.343-7.943 9.33-14.091zm-15.307-.638c.352 0 .638.286.638.638s-.286.638-.638.638c-.352 0-.638-.285-.638-.638s.285-.638.638-.638zm2.101 14.866 2.184-1.948.603 2.841-2.787-.892z"/><path fill="#2196f3" style="fill:var(--color3, #2196f3)" d="M15.356 3.185v1.276c0 .352.285.638.638.638s.638-.285.638-.638V3.185c0-.352-.286-.638-.638-.638s-.638.286-.638.638zm-11.48 11.48c-.352 0-.638.286-.638.638s.285.638.638.638h1.276c.352 0 .638-.285.638-.638s-.285-.638-.638-.638H3.876zm24.236 1.276c.352 0 .638-.285.638-.638s-.285-.638-.638-.638h-1.276c-.352 0-.638.286-.638.638s.286.638.638.638h1.276z"/></symbol>
<symbol id="antenna" viewBox="0 0 32 32"><path fill="#212121" style="fill:var(--color4, #212121)" d="m30.777 22.1-8.444-8.506.937-4.616c.225.09.485.144.758.146h.007c1.192.014 2.17-.941 2.185-2.134s-.941-2.17-2.134-2.185c-1.192-.014-2.17.941-2.185 2.134v.026c0 .259.046.508.13.739l-.005-.015-4.961.605L8.973.16A.53.53 0 0 0 8.597 0a.531.531 0 0 0-.373.155L6.711 1.659a.5335.5335 0 0 0 0 .754l.814.826c-3.154 5.799-2.129 12.979 2.52 17.665.043.041.092.074.146.098a2.986 2.986 0 0 0-.052.546v6.189H3.738c-1.472.002-2.665 1.195-2.667 2.667v1.067c0 .295.239.533.533.533H26.14c.295 0 .533-.239.533-.533v-1.067c-.002-1.472-1.195-2.665-2.667-2.667h-6.401v-2.742c.915.201 1.968.317 3.047.32h.002c2.58-.003 5.005-.663 7.118-1.822l-.077.039.818.823a.534.534 0 0 0 .377.16.531.531 0 0 0 .373-.155l1.513-1.504a.5335.5335 0 0 0 0-.754zM23.283 6.234c.418-.415 1.093-.414 1.509.004s.414 1.093-.004 1.509c-.193.192-.459.31-.752.31h-.003c-.589-.003-1.064-.483-1.061-1.072.002-.294.122-.559.314-.751h-.002zm-1.256 3.505-.598 2.946-1.176-1.183 1.774-1.763zm-.606-.902-1.92 1.909-1.486-1.494 3.406-.415zm2.586 19.967c.884 0 1.6.716 1.6 1.6v.533H2.137v-.533c0-.884.716-1.6 1.6-1.6h20.269zm-7.468-2.134v1.067h-5.334V26.67h5.334zm-5.333-1.067v-4.054c0-1.294 1.196-2.347 2.667-2.347s2.667 1.053 2.667 2.347v4.054h-5.334zm6.4-1.696v-2.358c0-1.882-1.675-3.414-3.734-3.414h-.058c-1.353 0-2.54.707-3.214 1.771l-.009.016C6.533 15.648 5.619 9.276 8.312 4.033l18.604 18.711c-1.823.947-3.98 1.502-6.267 1.502-1.079 0-2.128-.124-3.136-.357l.093.018zm11.291-.684L7.837 2.04l.755-.752 7.936 7.981c.004 0 .006.007.01.01l13.116 13.193-.757.752z"/><path fill="#2196f3" style="fill:var(--color3, #2196f3)" d="M13.877 20.269h-.005c-.884-.001-1.601.714-1.603 1.598s.714 1.601 1.598 1.603h.005c.884.001 1.601-.714 1.603-1.598s-.714-1.601-1.598-1.603zm.374 1.979a.5297.5297 0 0 1-.376.155h-.002a.5343.5343 0 0 1-.531-.536.5344.5344 0 0 1 .53-.531c.295.002.532.242.531.536a.5333.5333 0 0 1-.157.375h.005z"/></symbol>
<symbol id="telefon" viewBox="0 0 20 32"><path d="M17.012 0h-14.008c-1.655 0-3.002 1.346-3.002 3.002v26.014c0 1.655 1.346 3.002 3.002 3.002h14.008c1.655 0 3.002-1.346 3.002-3.002v-26.014c0-1.655-1.347-3.002-3.002-3.002zM3.005 2.001h14.008c0.552 0 1.001 0.448 1.001 1.001v21.011h-16.009v-21.011c0-0.552 0.448-1.001 1.001-1.001zM17.012 30.016h-14.008c-0.552-0-1-0.448-1.001-1v-3.002h16.009v3.002c0 0.552-0.448 1.001-1.001 1.001z"></path></symbol>
<symbol id="e-mail" viewBox="0 0 43 32"><path d="M38.688-0.009h-34.685c-2.207 0-4.002 1.795-4.002 4.002v24.013c0 2.207 1.795 4.002 4.002 4.002h34.685c2.207 0 4.002-1.795 4.002-4.002v-24.013c0-2.207-1.795-4.002-4.002-4.002zM38.688 2.659c0.185 0 0.36 0.038 0.52 0.107l-0.009-0.003-17.854 15.474-17.854-15.474c0.151-0.065 0.327-0.103 0.511-0.103h34.686zM38.688 29.341h-34.685c-0.737-0-1.334-0.597-1.334-1.334v-22.425l17.803 15.429c0.232 0.202 0.538 0.326 0.873 0.326 0 0 0.001 0 0.001 0h-0c0 0 0.001 0 0.002 0 0.334 0 0.64-0.123 0.874-0.327l-0.002 0.001 17.803-15.429v22.425c0 0.736-0.598 1.334-1.334 1.334z"></path></symbol>

<symbol id="icon-email-black" viewBox="0 0 32 32">
<path d="M26.667 5.333h-21.333c-1.467 0-2.653 1.2-2.653 2.667l-0.013 16c0 1.467 1.2 2.667 2.667 2.667h21.333c1.467 0 2.667-1.2 2.667-2.667v-16c0-1.467-1.2-2.667-2.667-2.667zM26.133 11l-9.427 5.893c-0.427 0.267-0.987 0.267-1.413 0l-9.427-5.893c-0.333-0.213-0.533-0.573-0.533-0.96 0-0.893 0.973-1.427 1.733-0.96l8.933 5.587 8.933-5.587c0.76-0.467 1.733 0.067 1.733 0.96 0 0.387-0.2 0.747-0.533 0.96z"></path>
</symbol>

<symbol id="icon-check" viewBox="0 0 42 32">
<path fill="#fff" style="fill: var(--color1, #fff); stroke: var(--color1, #fff)" stroke="#fff" stroke-linejoin="miter" stroke-linecap="butt" stroke-miterlimit="4" stroke-width="0.64" d="M6.263 15.205l-0.22-0.21-3.307 3.132 11.651 11.114 24.477-23.351-3.285-3.134-21.192 20.197-8.124-7.75z"></path>
</symbol>

<symbol id="icon-send" viewBox="0 0 32 32">
<path fill="#fff" style="fill: var(--color1, #fff)" d="M32 0l-32 18 10.227 3.788 15.773-14.788-11.998 16.186 0.010 0.004-0.012-0.004v8.814l5.735-6.691 7.265 2.691 5-28z"></path>
</symbol>

<symbol id="icon-person-black" viewBox="0 0 32 32">
<path d="M16 16c2.947 0 5.333-2.387 5.333-5.333s-2.387-5.333-5.333-5.333c-2.947 0-5.333 2.387-5.333 5.333s2.387 5.333 5.333 5.333zM16 18.667c-3.56 0-10.667 1.787-10.667 5.333v1.333c0 0.733 0.6 1.333 1.333 1.333h18.667c0.733 0 1.333-0.6 1.333-1.333v-1.333c0-3.547-7.107-5.333-10.667-5.333z"></path>
</symbol>

<symbol id="icon-phone-black" viewBox="0 0 32 32">
<path d="M24.882 19.773l-3.268-0.373c-0.785-0.090-1.557 0.18-2.11 0.733l-2.367 2.367c-3.641-1.853-6.626-4.825-8.478-8.478l2.38-2.38c0.553-0.553 0.823-1.325 0.733-2.11l-0.373-3.242c-0.154-1.299-1.248-2.277-2.56-2.277h-2.226c-1.454 0-2.663 1.209-2.573 2.663 0.682 10.987 9.469 19.761 20.443 20.443 1.454 0.090 2.663-1.119 2.663-2.573v-2.226c0.013-1.3-0.965-2.393-2.264-2.547z"></path>
</symbol>

</defs></svg>